<?xml version="1.0" encoding="UTF-8"?>
<svg version="1.1" baseProfile="tiny" xmlns="http://www.w3.org/2000/svg" width="200" height="200">
<rect shape-rendering="optimizeSpeed"  x="0" y="0" width="200" height="200" fill="white" />
<rect shape-rendering="optimizeSpeed"  x="17" y="17" width="5" height="5" fill="black" />
<rect shape-rendering="optimizeSpeed"  x="22" y="17" width="5" height="5" fill="black" />
<rect shape-rendering="optimizeSpeed"  x="27" y="17" width="5" height="5" fill="black" />
<rect shape-rendering="optimizeSpeed"  x="32" y="17" width="5" height="5" fill="black" />
<rect shape-rendering="optimizeSpeed"  x="37" y="17" width="5" height="5" fill="black" />
<rect shape-rendering="optimizeSpeed"  x="42" y="17" width="5" height="5" fill="black" />
<rect shape-rendering="optimizeSpeed"  x="47" y="17" width="5" height="5" fill="black" />
<rect shape-rendering="optimizeSpeed"  x="57" y="17" width="5" height="5" fill="black" />
<rect shape-rendering="optimizeSpeed"  x="72" y="17" width="5" height="5" fill="black" />
<rect shape-rendering="optimizeSpeed"  x="77" y="17" width="5" height="5" fill="black" />
<rect shape-rendering="optimizeSpeed"  x="82" y="17" width="5" height="5" fill="black" />
<rect shape-rendering="optimizeSpeed"  x="102" y="17" width="5" height="5" fill="black" />
<rect shape-rendering="optimizeSpeed"  x="107" y="17" width="5" height="5" fill="black" />
<rect shape-rendering="optimizeSpeed"  x="127" y="17" width="5" height="5" fill="black" />
<rect shape-rendering="optimizeSpeed"  x="137" y="17" width="5" height="5" fill="black" />
<rect shape-rendering="optimizeSpeed"  x="147" y="17" width="5" height="5" fill="black" />
<rect shape-rendering="optimizeSpeed"  x="152" y="17" width="5" height="5" fill="black" />
<rect shape-rendering="optimizeSpeed"  x="157" y="17" width="5" height="5" fill="black" />
<rect shape-rendering="optimizeSpeed"  x="162" y="17" width="5" height="5" fill="black" />
<rect shape-rendering="optimizeSpeed"  x="167" y="17" width="5" height="5" fill="black" />
<rect shape-rendering="optimizeSpeed"  x="172" y="17" width="5" height="5" fill="black" />
<rect shape-rendering="optimizeSpeed"  x="177" y="17" width="5" height="5" fill="black" />
<rect shape-rendering="optimizeSpeed"  x="17" y="22" width="5" height="5" fill="black" />
<rect shape-rendering="optimizeSpeed"  x="47" y="22" width="5" height="5" fill="black" />
<rect shape-rendering="optimizeSpeed"  x="62" y="22" width="5" height="5" fill="black" />
<rect shape-rendering="optimizeSpeed"  x="67" y="22" width="5" height="5" fill="black" />
<rect shape-rendering="optimizeSpeed"  x="87" y="22" width="5" height="5" fill="black" />
<rect shape-rendering="optimizeSpeed"  x="97" y="22" width="5" height="5" fill="black" />
<rect shape-rendering="optimizeSpeed"  x="112" y="22" width="5" height="5" fill="black" />
<rect shape-rendering="optimizeSpeed"  x="117" y="22" width="5" height="5" fill="black" />
<rect shape-rendering="optimizeSpeed"  x="127" y="22" width="5" height="5" fill="black" />
<rect shape-rendering="optimizeSpeed"  x="147" y="22" width="5" height="5" fill="black" />
<rect shape-rendering="optimizeSpeed"  x="177" y="22" width="5" height="5" fill="black" />
<rect shape-rendering="optimizeSpeed"  x="17" y="27" width="5" height="5" fill="black" />
<rect shape-rendering="optimizeSpeed"  x="27" y="27" width="5" height="5" fill="black" />
<rect shape-rendering="optimizeSpeed"  x="32" y="27" width="5" height="5" fill="black" />
<rect shape-rendering="optimizeSpeed"  x="37" y="27" width="5" height="5" fill="black" />
<rect shape-rendering="optimizeSpeed"  x="47" y="27" width="5" height="5" fill="black" />
<rect shape-rendering="optimizeSpeed"  x="67" y="27" width="5" height="5" fill="black" />
<rect shape-rendering="optimizeSpeed"  x="77" y="27" width="5" height="5" fill="black" />
<rect shape-rendering="optimizeSpeed"  x="82" y="27" width="5" height="5" fill="black" />
<rect shape-rendering="optimizeSpeed"  x="122" y="27" width="5" height="5" fill="black" />
<rect shape-rendering="optimizeSpeed"  x="132" y="27" width="5" height="5" fill="black" />
<rect shape-rendering="optimizeSpeed"  x="137" y="27" width="5" height="5" fill="black" />
<rect shape-rendering="optimizeSpeed"  x="147" y="27" width="5" height="5" fill="black" />
<rect shape-rendering="optimizeSpeed"  x="157" y="27" width="5" height="5" fill="black" />
<rect shape-rendering="optimizeSpeed"  x="162" y="27" width="5" height="5" fill="black" />
<rect shape-rendering="optimizeSpeed"  x="167" y="27" width="5" height="5" fill="black" />
<rect shape-rendering="optimizeSpeed"  x="177" y="27" width="5" height="5" fill="black" />
<rect shape-rendering="optimizeSpeed"  x="17" y="32" width="5" height="5" fill="black" />
<rect shape-rendering="optimizeSpeed"  x="27" y="32" width="5" height="5" fill="black" />
<rect shape-rendering="optimizeSpeed"  x="32" y="32" width="5" height="5" fill="black" />
<rect shape-rendering="optimizeSpeed"  x="37" y="32" width="5" height="5" fill="black" />
<rect shape-rendering="optimizeSpeed"  x="47" y="32" width="5" height="5" fill="black" />
<rect shape-rendering="optimizeSpeed"  x="77" y="32" width="5" height="5" fill="black" />
<rect shape-rendering="optimizeSpeed"  x="82" y="32" width="5" height="5" fill="black" />
<rect shape-rendering="optimizeSpeed"  x="92" y="32" width="5" height="5" fill="black" />
<rect shape-rendering="optimizeSpeed"  x="97" y="32" width="5" height="5" fill="black" />
<rect shape-rendering="optimizeSpeed"  x="147" y="32" width="5" height="5" fill="black" />
<rect shape-rendering="optimizeSpeed"  x="157" y="32" width="5" height="5" fill="black" />
<rect shape-rendering="optimizeSpeed"  x="162" y="32" width="5" height="5" fill="black" />
<rect shape-rendering="optimizeSpeed"  x="167" y="32" width="5" height="5" fill="black" />
<rect shape-rendering="optimizeSpeed"  x="177" y="32" width="5" height="5" fill="black" />
<rect shape-rendering="optimizeSpeed"  x="17" y="37" width="5" height="5" fill="black" />
<rect shape-rendering="optimizeSpeed"  x="27" y="37" width="5" height="5" fill="black" />
<rect shape-rendering="optimizeSpeed"  x="32" y="37" width="5" height="5" fill="black" />
<rect shape-rendering="optimizeSpeed"  x="37" y="37" width="5" height="5" fill="black" />
<rect shape-rendering="optimizeSpeed"  x="47" y="37" width="5" height="5" fill="black" />
<rect shape-rendering="optimizeSpeed"  x="62" y="37" width="5" height="5" fill="black" />
<rect shape-rendering="optimizeSpeed"  x="72" y="37" width="5" height="5" fill="black" />
<rect shape-rendering="optimizeSpeed"  x="97" y="37" width="5" height="5" fill="black" />
<rect shape-rendering="optimizeSpeed"  x="102" y="37" width="5" height="5" fill="black" />
<rect shape-rendering="optimizeSpeed"  x="112" y="37" width="5" height="5" fill="black" />
<rect shape-rendering="optimizeSpeed"  x="122" y="37" width="5" height="5" fill="black" />
<rect shape-rendering="optimizeSpeed"  x="132" y="37" width="5" height="5" fill="black" />
<rect shape-rendering="optimizeSpeed"  x="147" y="37" width="5" height="5" fill="black" />
<rect shape-rendering="optimizeSpeed"  x="157" y="37" width="5" height="5" fill="black" />
<rect shape-rendering="optimizeSpeed"  x="162" y="37" width="5" height="5" fill="black" />
<rect shape-rendering="optimizeSpeed"  x="167" y="37" width="5" height="5" fill="black" />
<rect shape-rendering="optimizeSpeed"  x="177" y="37" width="5" height="5" fill="black" />
<rect shape-rendering="optimizeSpeed"  x="17" y="42" width="5" height="5" fill="black" />
<rect shape-rendering="optimizeSpeed"  x="47" y="42" width="5" height="5" fill="black" />
<rect shape-rendering="optimizeSpeed"  x="67" y="42" width="5" height="5" fill="black" />
<rect shape-rendering="optimizeSpeed"  x="77" y="42" width="5" height="5" fill="black" />
<rect shape-rendering="optimizeSpeed"  x="87" y="42" width="5" height="5" fill="black" />
<rect shape-rendering="optimizeSpeed"  x="97" y="42" width="5" height="5" fill="black" />
<rect shape-rendering="optimizeSpeed"  x="107" y="42" width="5" height="5" fill="black" />
<rect shape-rendering="optimizeSpeed"  x="132" y="42" width="5" height="5" fill="black" />
<rect shape-rendering="optimizeSpeed"  x="137" y="42" width="5" height="5" fill="black" />
<rect shape-rendering="optimizeSpeed"  x="147" y="42" width="5" height="5" fill="black" />
<rect shape-rendering="optimizeSpeed"  x="177" y="42" width="5" height="5" fill="black" />
<rect shape-rendering="optimizeSpeed"  x="17" y="47" width="5" height="5" fill="black" />
<rect shape-rendering="optimizeSpeed"  x="22" y="47" width="5" height="5" fill="black" />
<rect shape-rendering="optimizeSpeed"  x="27" y="47" width="5" height="5" fill="black" />
<rect shape-rendering="optimizeSpeed"  x="32" y="47" width="5" height="5" fill="black" />
<rect shape-rendering="optimizeSpeed"  x="37" y="47" width="5" height="5" fill="black" />
<rect shape-rendering="optimizeSpeed"  x="42" y="47" width="5" height="5" fill="black" />
<rect shape-rendering="optimizeSpeed"  x="47" y="47" width="5" height="5" fill="black" />
<rect shape-rendering="optimizeSpeed"  x="57" y="47" width="5" height="5" fill="black" />
<rect shape-rendering="optimizeSpeed"  x="67" y="47" width="5" height="5" fill="black" />
<rect shape-rendering="optimizeSpeed"  x="77" y="47" width="5" height="5" fill="black" />
<rect shape-rendering="optimizeSpeed"  x="87" y="47" width="5" height="5" fill="black" />
<rect shape-rendering="optimizeSpeed"  x="97" y="47" width="5" height="5" fill="black" />
<rect shape-rendering="optimizeSpeed"  x="107" y="47" width="5" height="5" fill="black" />
<rect shape-rendering="optimizeSpeed"  x="117" y="47" width="5" height="5" fill="black" />
<rect shape-rendering="optimizeSpeed"  x="127" y="47" width="5" height="5" fill="black" />
<rect shape-rendering="optimizeSpeed"  x="137" y="47" width="5" height="5" fill="black" />
<rect shape-rendering="optimizeSpeed"  x="147" y="47" width="5" height="5" fill="black" />
<rect shape-rendering="optimizeSpeed"  x="152" y="47" width="5" height="5" fill="black" />
<rect shape-rendering="optimizeSpeed"  x="157" y="47" width="5" height="5" fill="black" />
<rect shape-rendering="optimizeSpeed"  x="162" y="47" width="5" height="5" fill="black" />
<rect shape-rendering="optimizeSpeed"  x="167" y="47" width="5" height="5" fill="black" />
<rect shape-rendering="optimizeSpeed"  x="172" y="47" width="5" height="5" fill="black" />
<rect shape-rendering="optimizeSpeed"  x="177" y="47" width="5" height="5" fill="black" />
<rect shape-rendering="optimizeSpeed"  x="57" y="52" width="5" height="5" fill="black" />
<rect shape-rendering="optimizeSpeed"  x="67" y="52" width="5" height="5" fill="black" />
<rect shape-rendering="optimizeSpeed"  x="72" y="52" width="5" height="5" fill="black" />
<rect shape-rendering="optimizeSpeed"  x="82" y="52" width="5" height="5" fill="black" />
<rect shape-rendering="optimizeSpeed"  x="87" y="52" width="5" height="5" fill="black" />
<rect shape-rendering="optimizeSpeed"  x="117" y="52" width="5" height="5" fill="black" />
<rect shape-rendering="optimizeSpeed"  x="17" y="57" width="5" height="5" fill="black" />
<rect shape-rendering="optimizeSpeed"  x="22" y="57" width="5" height="5" fill="black" />
<rect shape-rendering="optimizeSpeed"  x="32" y="57" width="5" height="5" fill="black" />
<rect shape-rendering="optimizeSpeed"  x="37" y="57" width="5" height="5" fill="black" />
<rect shape-rendering="optimizeSpeed"  x="47" y="57" width="5" height="5" fill="black" />
<rect shape-rendering="optimizeSpeed"  x="62" y="57" width="5" height="5" fill="black" />
<rect shape-rendering="optimizeSpeed"  x="67" y="57" width="5" height="5" fill="black" />
<rect shape-rendering="optimizeSpeed"  x="72" y="57" width="5" height="5" fill="black" />
<rect shape-rendering="optimizeSpeed"  x="92" y="57" width="5" height="5" fill="black" />
<rect shape-rendering="optimizeSpeed"  x="102" y="57" width="5" height="5" fill="black" />
<rect shape-rendering="optimizeSpeed"  x="112" y="57" width="5" height="5" fill="black" />
<rect shape-rendering="optimizeSpeed"  x="122" y="57" width="5" height="5" fill="black" />
<rect shape-rendering="optimizeSpeed"  x="132" y="57" width="5" height="5" fill="black" />
<rect shape-rendering="optimizeSpeed"  x="137" y="57" width="5" height="5" fill="black" />
<rect shape-rendering="optimizeSpeed"  x="147" y="57" width="5" height="5" fill="black" />
<rect shape-rendering="optimizeSpeed"  x="177" y="57" width="5" height="5" fill="black" />
<rect shape-rendering="optimizeSpeed"  x="22" y="62" width="5" height="5" fill="black" />
<rect shape-rendering="optimizeSpeed"  x="27" y="62" width="5" height="5" fill="black" />
<rect shape-rendering="optimizeSpeed"  x="32" y="62" width="5" height="5" fill="black" />
<rect shape-rendering="optimizeSpeed"  x="37" y="62" width="5" height="5" fill="black" />
<rect shape-rendering="optimizeSpeed"  x="42" y="62" width="5" height="5" fill="black" />
<rect shape-rendering="optimizeSpeed"  x="52" y="62" width="5" height="5" fill="black" />
<rect shape-rendering="optimizeSpeed"  x="57" y="62" width="5" height="5" fill="black" />
<rect shape-rendering="optimizeSpeed"  x="62" y="62" width="5" height="5" fill="black" />
<rect shape-rendering="optimizeSpeed"  x="77" y="62" width="5" height="5" fill="black" />
<rect shape-rendering="optimizeSpeed"  x="87" y="62" width="5" height="5" fill="black" />
<rect shape-rendering="optimizeSpeed"  x="92" y="62" width="5" height="5" fill="black" />
<rect shape-rendering="optimizeSpeed"  x="102" y="62" width="5" height="5" fill="black" />
<rect shape-rendering="optimizeSpeed"  x="107" y="62" width="5" height="5" fill="black" />
<rect shape-rendering="optimizeSpeed"  x="112" y="62" width="5" height="5" fill="black" />
<rect shape-rendering="optimizeSpeed"  x="122" y="62" width="5" height="5" fill="black" />
<rect shape-rendering="optimizeSpeed"  x="127" y="62" width="5" height="5" fill="black" />
<rect shape-rendering="optimizeSpeed"  x="152" y="62" width="5" height="5" fill="black" />
<rect shape-rendering="optimizeSpeed"  x="157" y="62" width="5" height="5" fill="black" />
<rect shape-rendering="optimizeSpeed"  x="167" y="62" width="5" height="5" fill="black" />
<rect shape-rendering="optimizeSpeed"  x="172" y="62" width="5" height="5" fill="black" />
<rect shape-rendering="optimizeSpeed"  x="27" y="67" width="5" height="5" fill="black" />
<rect shape-rendering="optimizeSpeed"  x="32" y="67" width="5" height="5" fill="black" />
<rect shape-rendering="optimizeSpeed"  x="42" y="67" width="5" height="5" fill="black" />
<rect shape-rendering="optimizeSpeed"  x="47" y="67" width="5" height="5" fill="black" />
<rect shape-rendering="optimizeSpeed"  x="67" y="67" width="5" height="5" fill="black" />
<rect shape-rendering="optimizeSpeed"  x="72" y="67" width="5" height="5" fill="black" />
<rect shape-rendering="optimizeSpeed"  x="82" y="67" width="5" height="5" fill="black" />
<rect shape-rendering="optimizeSpeed"  x="87" y="67" width="5" height="5" fill="black" />
<rect shape-rendering="optimizeSpeed"  x="92" y="67" width="5" height="5" fill="black" />
<rect shape-rendering="optimizeSpeed"  x="97" y="67" width="5" height="5" fill="black" />
<rect shape-rendering="optimizeSpeed"  x="122" y="67" width="5" height="5" fill="black" />
<rect shape-rendering="optimizeSpeed"  x="127" y="67" width="5" height="5" fill="black" />
<rect shape-rendering="optimizeSpeed"  x="132" y="67" width="5" height="5" fill="black" />
<rect shape-rendering="optimizeSpeed"  x="142" y="67" width="5" height="5" fill="black" />
<rect shape-rendering="optimizeSpeed"  x="162" y="67" width="5" height="5" fill="black" />
<rect shape-rendering="optimizeSpeed"  x="172" y="67" width="5" height="5" fill="black" />
<rect shape-rendering="optimizeSpeed"  x="177" y="67" width="5" height="5" fill="black" />
<rect shape-rendering="optimizeSpeed"  x="22" y="72" width="5" height="5" fill="black" />
<rect shape-rendering="optimizeSpeed"  x="27" y="72" width="5" height="5" fill="black" />
<rect shape-rendering="optimizeSpeed"  x="32" y="72" width="5" height="5" fill="black" />
<rect shape-rendering="optimizeSpeed"  x="37" y="72" width="5" height="5" fill="black" />
<rect shape-rendering="optimizeSpeed"  x="52" y="72" width="5" height="5" fill="black" />
<rect shape-rendering="optimizeSpeed"  x="57" y="72" width="5" height="5" fill="black" />
<rect shape-rendering="optimizeSpeed"  x="62" y="72" width="5" height="5" fill="black" />
<rect shape-rendering="optimizeSpeed"  x="67" y="72" width="5" height="5" fill="black" />
<rect shape-rendering="optimizeSpeed"  x="72" y="72" width="5" height="5" fill="black" />
<rect shape-rendering="optimizeSpeed"  x="77" y="72" width="5" height="5" fill="black" />
<rect shape-rendering="optimizeSpeed"  x="92" y="72" width="5" height="5" fill="black" />
<rect shape-rendering="optimizeSpeed"  x="97" y="72" width="5" height="5" fill="black" />
<rect shape-rendering="optimizeSpeed"  x="102" y="72" width="5" height="5" fill="black" />
<rect shape-rendering="optimizeSpeed"  x="142" y="72" width="5" height="5" fill="black" />
<rect shape-rendering="optimizeSpeed"  x="157" y="72" width="5" height="5" fill="black" />
<rect shape-rendering="optimizeSpeed"  x="162" y="72" width="5" height="5" fill="black" />
<rect shape-rendering="optimizeSpeed"  x="167" y="72" width="5" height="5" fill="black" />
<rect shape-rendering="optimizeSpeed"  x="172" y="72" width="5" height="5" fill="black" />
<rect shape-rendering="optimizeSpeed"  x="32" y="77" width="5" height="5" fill="black" />
<rect shape-rendering="optimizeSpeed"  x="47" y="77" width="5" height="5" fill="black" />
<rect shape-rendering="optimizeSpeed"  x="57" y="77" width="5" height="5" fill="black" />
<rect shape-rendering="optimizeSpeed"  x="62" y="77" width="5" height="5" fill="black" />
<rect shape-rendering="optimizeSpeed"  x="72" y="77" width="5" height="5" fill="black" />
<rect shape-rendering="optimizeSpeed"  x="77" y="77" width="5" height="5" fill="black" />
<rect shape-rendering="optimizeSpeed"  x="87" y="77" width="5" height="5" fill="black" />
<rect shape-rendering="optimizeSpeed"  x="92" y="77" width="5" height="5" fill="black" />
<rect shape-rendering="optimizeSpeed"  x="117" y="77" width="5" height="5" fill="black" />
<rect shape-rendering="optimizeSpeed"  x="127" y="77" width="5" height="5" fill="black" />
<rect shape-rendering="optimizeSpeed"  x="147" y="77" width="5" height="5" fill="black" />
<rect shape-rendering="optimizeSpeed"  x="152" y="77" width="5" height="5" fill="black" />
<rect shape-rendering="optimizeSpeed"  x="162" y="77" width="5" height="5" fill="black" />
<rect shape-rendering="optimizeSpeed"  x="177" y="77" width="5" height="5" fill="black" />
<rect shape-rendering="optimizeSpeed"  x="17" y="82" width="5" height="5" fill="black" />
<rect shape-rendering="optimizeSpeed"  x="22" y="82" width="5" height="5" fill="black" />
<rect shape-rendering="optimizeSpeed"  x="42" y="82" width="5" height="5" fill="black" />
<rect shape-rendering="optimizeSpeed"  x="52" y="82" width="5" height="5" fill="black" />
<rect shape-rendering="optimizeSpeed"  x="92" y="82" width="5" height="5" fill="black" />
<rect shape-rendering="optimizeSpeed"  x="97" y="82" width="5" height="5" fill="black" />
<rect shape-rendering="optimizeSpeed"  x="102" y="82" width="5" height="5" fill="black" />
<rect shape-rendering="optimizeSpeed"  x="107" y="82" width="5" height="5" fill="black" />
<rect shape-rendering="optimizeSpeed"  x="142" y="82" width="5" height="5" fill="black" />
<rect shape-rendering="optimizeSpeed"  x="152" y="82" width="5" height="5" fill="black" />
<rect shape-rendering="optimizeSpeed"  x="167" y="82" width="5" height="5" fill="black" />
<rect shape-rendering="optimizeSpeed"  x="172" y="82" width="5" height="5" fill="black" />
<rect shape-rendering="optimizeSpeed"  x="32" y="87" width="5" height="5" fill="black" />
<rect shape-rendering="optimizeSpeed"  x="37" y="87" width="5" height="5" fill="black" />
<rect shape-rendering="optimizeSpeed"  x="42" y="87" width="5" height="5" fill="black" />
<rect shape-rendering="optimizeSpeed"  x="47" y="87" width="5" height="5" fill="black" />
<rect shape-rendering="optimizeSpeed"  x="52" y="87" width="5" height="5" fill="black" />
<rect shape-rendering="optimizeSpeed"  x="57" y="87" width="5" height="5" fill="black" />
<rect shape-rendering="optimizeSpeed"  x="62" y="87" width="5" height="5" fill="black" />
<rect shape-rendering="optimizeSpeed"  x="72" y="87" width="5" height="5" fill="black" />
<rect shape-rendering="optimizeSpeed"  x="77" y="87" width="5" height="5" fill="black" />
<rect shape-rendering="optimizeSpeed"  x="92" y="87" width="5" height="5" fill="black" />
<rect shape-rendering="optimizeSpeed"  x="97" y="87" width="5" height="5" fill="black" />
<rect shape-rendering="optimizeSpeed"  x="112" y="87" width="5" height="5" fill="black" />
<rect shape-rendering="optimizeSpeed"  x="127" y="87" width="5" height="5" fill="black" />
<rect shape-rendering="optimizeSpeed"  x="137" y="87" width="5" height="5" fill="black" />
<rect shape-rendering="optimizeSpeed"  x="152" y="87" width="5" height="5" fill="black" />
<rect shape-rendering="optimizeSpeed"  x="42" y="92" width="5" height="5" fill="black" />
<rect shape-rendering="optimizeSpeed"  x="72" y="92" width="5" height="5" fill="black" />
<rect shape-rendering="optimizeSpeed"  x="87" y="92" width="5" height="5" fill="black" />
<rect shape-rendering="optimizeSpeed"  x="92" y="92" width="5" height="5" fill="black" />
<rect shape-rendering="optimizeSpeed"  x="107" y="92" width="5" height="5" fill="black" />
<rect shape-rendering="optimizeSpeed"  x="127" y="92" width="5" height="5" fill="black" />
<rect shape-rendering="optimizeSpeed"  x="132" y="92" width="5" height="5" fill="black" />
<rect shape-rendering="optimizeSpeed"  x="142" y="92" width="5" height="5" fill="black" />
<rect shape-rendering="optimizeSpeed"  x="147" y="92" width="5" height="5" fill="black" />
<rect shape-rendering="optimizeSpeed"  x="152" y="92" width="5" height="5" fill="black" />
<rect shape-rendering="optimizeSpeed"  x="167" y="92" width="5" height="5" fill="black" />
<rect shape-rendering="optimizeSpeed"  x="22" y="97" width="5" height="5" fill="black" />
<rect shape-rendering="optimizeSpeed"  x="32" y="97" width="5" height="5" fill="black" />
<rect shape-rendering="optimizeSpeed"  x="37" y="97" width="5" height="5" fill="black" />
<rect shape-rendering="optimizeSpeed"  x="42" y="97" width="5" height="5" fill="black" />
<rect shape-rendering="optimizeSpeed"  x="47" y="97" width="5" height="5" fill="black" />
<rect shape-rendering="optimizeSpeed"  x="57" y="97" width="5" height="5" fill="black" />
<rect shape-rendering="optimizeSpeed"  x="67" y="97" width="5" height="5" fill="black" />
<rect shape-rendering="optimizeSpeed"  x="82" y="97" width="5" height="5" fill="black" />
<rect shape-rendering="optimizeSpeed"  x="87" y="97" width="5" height="5" fill="black" />
<rect shape-rendering="optimizeSpeed"  x="112" y="97" width="5" height="5" fill="black" />
<rect shape-rendering="optimizeSpeed"  x="117" y="97" width="5" height="5" fill="black" />
<rect shape-rendering="optimizeSpeed"  x="132" y="97" width="5" height="5" fill="black" />
<rect shape-rendering="optimizeSpeed"  x="147" y="97" width="5" height="5" fill="black" />
<rect shape-rendering="optimizeSpeed"  x="152" y="97" width="5" height="5" fill="black" />
<rect shape-rendering="optimizeSpeed"  x="157" y="97" width="5" height="5" fill="black" />
<rect shape-rendering="optimizeSpeed"  x="172" y="97" width="5" height="5" fill="black" />
<rect shape-rendering="optimizeSpeed"  x="177" y="97" width="5" height="5" fill="black" />
<rect shape-rendering="optimizeSpeed"  x="27" y="102" width="5" height="5" fill="black" />
<rect shape-rendering="optimizeSpeed"  x="37" y="102" width="5" height="5" fill="black" />
<rect shape-rendering="optimizeSpeed"  x="42" y="102" width="5" height="5" fill="black" />
<rect shape-rendering="optimizeSpeed"  x="62" y="102" width="5" height="5" fill="black" />
<rect shape-rendering="optimizeSpeed"  x="72" y="102" width="5" height="5" fill="black" />
<rect shape-rendering="optimizeSpeed"  x="77" y="102" width="5" height="5" fill="black" />
<rect shape-rendering="optimizeSpeed"  x="92" y="102" width="5" height="5" fill="black" />
<rect shape-rendering="optimizeSpeed"  x="102" y="102" width="5" height="5" fill="black" />
<rect shape-rendering="optimizeSpeed"  x="107" y="102" width="5" height="5" fill="black" />
<rect shape-rendering="optimizeSpeed"  x="117" y="102" width="5" height="5" fill="black" />
<rect shape-rendering="optimizeSpeed"  x="122" y="102" width="5" height="5" fill="black" />
<rect shape-rendering="optimizeSpeed"  x="127" y="102" width="5" height="5" fill="black" />
<rect shape-rendering="optimizeSpeed"  x="132" y="102" width="5" height="5" fill="black" />
<rect shape-rendering="optimizeSpeed"  x="147" y="102" width="5" height="5" fill="black" />
<rect shape-rendering="optimizeSpeed"  x="152" y="102" width="5" height="5" fill="black" />
<rect shape-rendering="optimizeSpeed"  x="157" y="102" width="5" height="5" fill="black" />
<rect shape-rendering="optimizeSpeed"  x="162" y="102" width="5" height="5" fill="black" />
<rect shape-rendering="optimizeSpeed"  x="172" y="102" width="5" height="5" fill="black" />
<rect shape-rendering="optimizeSpeed"  x="177" y="102" width="5" height="5" fill="black" />
<rect shape-rendering="optimizeSpeed"  x="22" y="107" width="5" height="5" fill="black" />
<rect shape-rendering="optimizeSpeed"  x="37" y="107" width="5" height="5" fill="black" />
<rect shape-rendering="optimizeSpeed"  x="42" y="107" width="5" height="5" fill="black" />
<rect shape-rendering="optimizeSpeed"  x="47" y="107" width="5" height="5" fill="black" />
<rect shape-rendering="optimizeSpeed"  x="52" y="107" width="5" height="5" fill="black" />
<rect shape-rendering="optimizeSpeed"  x="67" y="107" width="5" height="5" fill="black" />
<rect shape-rendering="optimizeSpeed"  x="72" y="107" width="5" height="5" fill="black" />
<rect shape-rendering="optimizeSpeed"  x="87" y="107" width="5" height="5" fill="black" />
<rect shape-rendering="optimizeSpeed"  x="92" y="107" width="5" height="5" fill="black" />
<rect shape-rendering="optimizeSpeed"  x="102" y="107" width="5" height="5" fill="black" />
<rect shape-rendering="optimizeSpeed"  x="107" y="107" width="5" height="5" fill="black" />
<rect shape-rendering="optimizeSpeed"  x="112" y="107" width="5" height="5" fill="black" />
<rect shape-rendering="optimizeSpeed"  x="117" y="107" width="5" height="5" fill="black" />
<rect shape-rendering="optimizeSpeed"  x="122" y="107" width="5" height="5" fill="black" />
<rect shape-rendering="optimizeSpeed"  x="132" y="107" width="5" height="5" fill="black" />
<rect shape-rendering="optimizeSpeed"  x="142" y="107" width="5" height="5" fill="black" />
<rect shape-rendering="optimizeSpeed"  x="147" y="107" width="5" height="5" fill="black" />
<rect shape-rendering="optimizeSpeed"  x="152" y="107" width="5" height="5" fill="black" />
<rect shape-rendering="optimizeSpeed"  x="162" y="107" width="5" height="5" fill="black" />
<rect shape-rendering="optimizeSpeed"  x="177" y="107" width="5" height="5" fill="black" />
<rect shape-rendering="optimizeSpeed"  x="17" y="112" width="5" height="5" fill="black" />
<rect shape-rendering="optimizeSpeed"  x="32" y="112" width="5" height="5" fill="black" />
<rect shape-rendering="optimizeSpeed"  x="42" y="112" width="5" height="5" fill="black" />
<rect shape-rendering="optimizeSpeed"  x="52" y="112" width="5" height="5" fill="black" />
<rect shape-rendering="optimizeSpeed"  x="77" y="112" width="5" height="5" fill="black" />
<rect shape-rendering="optimizeSpeed"  x="82" y="112" width="5" height="5" fill="black" />
<rect shape-rendering="optimizeSpeed"  x="87" y="112" width="5" height="5" fill="black" />
<rect shape-rendering="optimizeSpeed"  x="117" y="112" width="5" height="5" fill="black" />
<rect shape-rendering="optimizeSpeed"  x="132" y="112" width="5" height="5" fill="black" />
<rect shape-rendering="optimizeSpeed"  x="142" y="112" width="5" height="5" fill="black" />
<rect shape-rendering="optimizeSpeed"  x="167" y="112" width="5" height="5" fill="black" />
<rect shape-rendering="optimizeSpeed"  x="172" y="112" width="5" height="5" fill="black" />
<rect shape-rendering="optimizeSpeed"  x="22" y="117" width="5" height="5" fill="black" />
<rect shape-rendering="optimizeSpeed"  x="37" y="117" width="5" height="5" fill="black" />
<rect shape-rendering="optimizeSpeed"  x="42" y="117" width="5" height="5" fill="black" />
<rect shape-rendering="optimizeSpeed"  x="47" y="117" width="5" height="5" fill="black" />
<rect shape-rendering="optimizeSpeed"  x="52" y="117" width="5" height="5" fill="black" />
<rect shape-rendering="optimizeSpeed"  x="67" y="117" width="5" height="5" fill="black" />
<rect shape-rendering="optimizeSpeed"  x="77" y="117" width="5" height="5" fill="black" />
<rect shape-rendering="optimizeSpeed"  x="87" y="117" width="5" height="5" fill="black" />
<rect shape-rendering="optimizeSpeed"  x="92" y="117" width="5" height="5" fill="black" />
<rect shape-rendering="optimizeSpeed"  x="97" y="117" width="5" height="5" fill="black" />
<rect shape-rendering="optimizeSpeed"  x="102" y="117" width="5" height="5" fill="black" />
<rect shape-rendering="optimizeSpeed"  x="112" y="117" width="5" height="5" fill="black" />
<rect shape-rendering="optimizeSpeed"  x="127" y="117" width="5" height="5" fill="black" />
<rect shape-rendering="optimizeSpeed"  x="132" y="117" width="5" height="5" fill="black" />
<rect shape-rendering="optimizeSpeed"  x="137" y="117" width="5" height="5" fill="black" />
<rect shape-rendering="optimizeSpeed"  x="142" y="117" width="5" height="5" fill="black" />
<rect shape-rendering="optimizeSpeed"  x="152" y="117" width="5" height="5" fill="black" />
<rect shape-rendering="optimizeSpeed"  x="172" y="117" width="5" height="5" fill="black" />
<rect shape-rendering="optimizeSpeed"  x="17" y="122" width="5" height="5" fill="black" />
<rect shape-rendering="optimizeSpeed"  x="37" y="122" width="5" height="5" fill="black" />
<rect shape-rendering="optimizeSpeed"  x="42" y="122" width="5" height="5" fill="black" />
<rect shape-rendering="optimizeSpeed"  x="52" y="122" width="5" height="5" fill="black" />
<rect shape-rendering="optimizeSpeed"  x="57" y="122" width="5" height="5" fill="black" />
<rect shape-rendering="optimizeSpeed"  x="87" y="122" width="5" height="5" fill="black" />
<rect shape-rendering="optimizeSpeed"  x="92" y="122" width="5" height="5" fill="black" />
<rect shape-rendering="optimizeSpeed"  x="112" y="122" width="5" height="5" fill="black" />
<rect shape-rendering="optimizeSpeed"  x="117" y="122" width="5" height="5" fill="black" />
<rect shape-rendering="optimizeSpeed"  x="127" y="122" width="5" height="5" fill="black" />
<rect shape-rendering="optimizeSpeed"  x="142" y="122" width="5" height="5" fill="black" />
<rect shape-rendering="optimizeSpeed"  x="157" y="122" width="5" height="5" fill="black" />
<rect shape-rendering="optimizeSpeed"  x="167" y="122" width="5" height="5" fill="black" />
<rect shape-rendering="optimizeSpeed"  x="17" y="127" width="5" height="5" fill="black" />
<rect shape-rendering="optimizeSpeed"  x="32" y="127" width="5" height="5" fill="black" />
<rect shape-rendering="optimizeSpeed"  x="37" y="127" width="5" height="5" fill="black" />
<rect shape-rendering="optimizeSpeed"  x="42" y="127" width="5" height="5" fill="black" />
<rect shape-rendering="optimizeSpeed"  x="47" y="127" width="5" height="5" fill="black" />
<rect shape-rendering="optimizeSpeed"  x="57" y="127" width="5" height="5" fill="black" />
<rect shape-rendering="optimizeSpeed"  x="67" y="127" width="5" height="5" fill="black" />
<rect shape-rendering="optimizeSpeed"  x="77" y="127" width="5" height="5" fill="black" />
<rect shape-rendering="optimizeSpeed"  x="82" y="127" width="5" height="5" fill="black" />
<rect shape-rendering="optimizeSpeed"  x="87" y="127" width="5" height="5" fill="black" />
<rect shape-rendering="optimizeSpeed"  x="92" y="127" width="5" height="5" fill="black" />
<rect shape-rendering="optimizeSpeed"  x="107" y="127" width="5" height="5" fill="black" />
<rect shape-rendering="optimizeSpeed"  x="117" y="127" width="5" height="5" fill="black" />
<rect shape-rendering="optimizeSpeed"  x="132" y="127" width="5" height="5" fill="black" />
<rect shape-rendering="optimizeSpeed"  x="137" y="127" width="5" height="5" fill="black" />
<rect shape-rendering="optimizeSpeed"  x="152" y="127" width="5" height="5" fill="black" />
<rect shape-rendering="optimizeSpeed"  x="162" y="127" width="5" height="5" fill="black" />
<rect shape-rendering="optimizeSpeed"  x="177" y="127" width="5" height="5" fill="black" />
<rect shape-rendering="optimizeSpeed"  x="17" y="132" width="5" height="5" fill="black" />
<rect shape-rendering="optimizeSpeed"  x="27" y="132" width="5" height="5" fill="black" />
<rect shape-rendering="optimizeSpeed"  x="52" y="132" width="5" height="5" fill="black" />
<rect shape-rendering="optimizeSpeed"  x="67" y="132" width="5" height="5" fill="black" />
<rect shape-rendering="optimizeSpeed"  x="92" y="132" width="5" height="5" fill="black" />
<rect shape-rendering="optimizeSpeed"  x="97" y="132" width="5" height="5" fill="black" />
<rect shape-rendering="optimizeSpeed"  x="102" y="132" width="5" height="5" fill="black" />
<rect shape-rendering="optimizeSpeed"  x="107" y="132" width="5" height="5" fill="black" />
<rect shape-rendering="optimizeSpeed"  x="112" y="132" width="5" height="5" fill="black" />
<rect shape-rendering="optimizeSpeed"  x="127" y="132" width="5" height="5" fill="black" />
<rect shape-rendering="optimizeSpeed"  x="137" y="132" width="5" height="5" fill="black" />
<rect shape-rendering="optimizeSpeed"  x="147" y="132" width="5" height="5" fill="black" />
<rect shape-rendering="optimizeSpeed"  x="152" y="132" width="5" height="5" fill="black" />
<rect shape-rendering="optimizeSpeed"  x="167" y="132" width="5" height="5" fill="black" />
<rect shape-rendering="optimizeSpeed"  x="172" y="132" width="5" height="5" fill="black" />
<rect shape-rendering="optimizeSpeed"  x="177" y="132" width="5" height="5" fill="black" />
<rect shape-rendering="optimizeSpeed"  x="17" y="137" width="5" height="5" fill="black" />
<rect shape-rendering="optimizeSpeed"  x="22" y="137" width="5" height="5" fill="black" />
<rect shape-rendering="optimizeSpeed"  x="27" y="137" width="5" height="5" fill="black" />
<rect shape-rendering="optimizeSpeed"  x="32" y="137" width="5" height="5" fill="black" />
<rect shape-rendering="optimizeSpeed"  x="37" y="137" width="5" height="5" fill="black" />
<rect shape-rendering="optimizeSpeed"  x="42" y="137" width="5" height="5" fill="black" />
<rect shape-rendering="optimizeSpeed"  x="47" y="137" width="5" height="5" fill="black" />
<rect shape-rendering="optimizeSpeed"  x="57" y="137" width="5" height="5" fill="black" />
<rect shape-rendering="optimizeSpeed"  x="62" y="137" width="5" height="5" fill="black" />
<rect shape-rendering="optimizeSpeed"  x="67" y="137" width="5" height="5" fill="black" />
<rect shape-rendering="optimizeSpeed"  x="77" y="137" width="5" height="5" fill="black" />
<rect shape-rendering="optimizeSpeed"  x="92" y="137" width="5" height="5" fill="black" />
<rect shape-rendering="optimizeSpeed"  x="107" y="137" width="5" height="5" fill="black" />
<rect shape-rendering="optimizeSpeed"  x="132" y="137" width="5" height="5" fill="black" />
<rect shape-rendering="optimizeSpeed"  x="137" y="137" width="5" height="5" fill="black" />
<rect shape-rendering="optimizeSpeed"  x="142" y="137" width="5" height="5" fill="black" />
<rect shape-rendering="optimizeSpeed"  x="147" y="137" width="5" height="5" fill="black" />
<rect shape-rendering="optimizeSpeed"  x="152" y="137" width="5" height="5" fill="black" />
<rect shape-rendering="optimizeSpeed"  x="157" y="137" width="5" height="5" fill="black" />
<rect shape-rendering="optimizeSpeed"  x="172" y="137" width="5" height="5" fill="black" />
<rect shape-rendering="optimizeSpeed"  x="57" y="142" width="5" height="5" fill="black" />
<rect shape-rendering="optimizeSpeed"  x="67" y="142" width="5" height="5" fill="black" />
<rect shape-rendering="optimizeSpeed"  x="77" y="142" width="5" height="5" fill="black" />
<rect shape-rendering="optimizeSpeed"  x="87" y="142" width="5" height="5" fill="black" />
<rect shape-rendering="optimizeSpeed"  x="92" y="142" width="5" height="5" fill="black" />
<rect shape-rendering="optimizeSpeed"  x="97" y="142" width="5" height="5" fill="black" />
<rect shape-rendering="optimizeSpeed"  x="107" y="142" width="5" height="5" fill="black" />
<rect shape-rendering="optimizeSpeed"  x="117" y="142" width="5" height="5" fill="black" />
<rect shape-rendering="optimizeSpeed"  x="127" y="142" width="5" height="5" fill="black" />
<rect shape-rendering="optimizeSpeed"  x="132" y="142" width="5" height="5" fill="black" />
<rect shape-rendering="optimizeSpeed"  x="137" y="142" width="5" height="5" fill="black" />
<rect shape-rendering="optimizeSpeed"  x="157" y="142" width="5" height="5" fill="black" />
<rect shape-rendering="optimizeSpeed"  x="162" y="142" width="5" height="5" fill="black" />
<rect shape-rendering="optimizeSpeed"  x="167" y="142" width="5" height="5" fill="black" />
<rect shape-rendering="optimizeSpeed"  x="17" y="147" width="5" height="5" fill="black" />
<rect shape-rendering="optimizeSpeed"  x="22" y="147" width="5" height="5" fill="black" />
<rect shape-rendering="optimizeSpeed"  x="27" y="147" width="5" height="5" fill="black" />
<rect shape-rendering="optimizeSpeed"  x="32" y="147" width="5" height="5" fill="black" />
<rect shape-rendering="optimizeSpeed"  x="37" y="147" width="5" height="5" fill="black" />
<rect shape-rendering="optimizeSpeed"  x="42" y="147" width="5" height="5" fill="black" />
<rect shape-rendering="optimizeSpeed"  x="47" y="147" width="5" height="5" fill="black" />
<rect shape-rendering="optimizeSpeed"  x="67" y="147" width="5" height="5" fill="black" />
<rect shape-rendering="optimizeSpeed"  x="82" y="147" width="5" height="5" fill="black" />
<rect shape-rendering="optimizeSpeed"  x="87" y="147" width="5" height="5" fill="black" />
<rect shape-rendering="optimizeSpeed"  x="92" y="147" width="5" height="5" fill="black" />
<rect shape-rendering="optimizeSpeed"  x="97" y="147" width="5" height="5" fill="black" />
<rect shape-rendering="optimizeSpeed"  x="102" y="147" width="5" height="5" fill="black" />
<rect shape-rendering="optimizeSpeed"  x="107" y="147" width="5" height="5" fill="black" />
<rect shape-rendering="optimizeSpeed"  x="112" y="147" width="5" height="5" fill="black" />
<rect shape-rendering="optimizeSpeed"  x="122" y="147" width="5" height="5" fill="black" />
<rect shape-rendering="optimizeSpeed"  x="127" y="147" width="5" height="5" fill="black" />
<rect shape-rendering="optimizeSpeed"  x="137" y="147" width="5" height="5" fill="black" />
<rect shape-rendering="optimizeSpeed"  x="147" y="147" width="5" height="5" fill="black" />
<rect shape-rendering="optimizeSpeed"  x="157" y="147" width="5" height="5" fill="black" />
<rect shape-rendering="optimizeSpeed"  x="17" y="152" width="5" height="5" fill="black" />
<rect shape-rendering="optimizeSpeed"  x="47" y="152" width="5" height="5" fill="black" />
<rect shape-rendering="optimizeSpeed"  x="67" y="152" width="5" height="5" fill="black" />
<rect shape-rendering="optimizeSpeed"  x="87" y="152" width="5" height="5" fill="black" />
<rect shape-rendering="optimizeSpeed"  x="107" y="152" width="5" height="5" fill="black" />
<rect shape-rendering="optimizeSpeed"  x="112" y="152" width="5" height="5" fill="black" />
<rect shape-rendering="optimizeSpeed"  x="117" y="152" width="5" height="5" fill="black" />
<rect shape-rendering="optimizeSpeed"  x="127" y="152" width="5" height="5" fill="black" />
<rect shape-rendering="optimizeSpeed"  x="132" y="152" width="5" height="5" fill="black" />
<rect shape-rendering="optimizeSpeed"  x="137" y="152" width="5" height="5" fill="black" />
<rect shape-rendering="optimizeSpeed"  x="157" y="152" width="5" height="5" fill="black" />
<rect shape-rendering="optimizeSpeed"  x="167" y="152" width="5" height="5" fill="black" />
<rect shape-rendering="optimizeSpeed"  x="172" y="152" width="5" height="5" fill="black" />
<rect shape-rendering="optimizeSpeed"  x="177" y="152" width="5" height="5" fill="black" />
<rect shape-rendering="optimizeSpeed"  x="17" y="157" width="5" height="5" fill="black" />
<rect shape-rendering="optimizeSpeed"  x="27" y="157" width="5" height="5" fill="black" />
<rect shape-rendering="optimizeSpeed"  x="32" y="157" width="5" height="5" fill="black" />
<rect shape-rendering="optimizeSpeed"  x="37" y="157" width="5" height="5" fill="black" />
<rect shape-rendering="optimizeSpeed"  x="47" y="157" width="5" height="5" fill="black" />
<rect shape-rendering="optimizeSpeed"  x="57" y="157" width="5" height="5" fill="black" />
<rect shape-rendering="optimizeSpeed"  x="62" y="157" width="5" height="5" fill="black" />
<rect shape-rendering="optimizeSpeed"  x="82" y="157" width="5" height="5" fill="black" />
<rect shape-rendering="optimizeSpeed"  x="92" y="157" width="5" height="5" fill="black" />
<rect shape-rendering="optimizeSpeed"  x="97" y="157" width="5" height="5" fill="black" />
<rect shape-rendering="optimizeSpeed"  x="107" y="157" width="5" height="5" fill="black" />
<rect shape-rendering="optimizeSpeed"  x="117" y="157" width="5" height="5" fill="black" />
<rect shape-rendering="optimizeSpeed"  x="127" y="157" width="5" height="5" fill="black" />
<rect shape-rendering="optimizeSpeed"  x="132" y="157" width="5" height="5" fill="black" />
<rect shape-rendering="optimizeSpeed"  x="137" y="157" width="5" height="5" fill="black" />
<rect shape-rendering="optimizeSpeed"  x="142" y="157" width="5" height="5" fill="black" />
<rect shape-rendering="optimizeSpeed"  x="147" y="157" width="5" height="5" fill="black" />
<rect shape-rendering="optimizeSpeed"  x="152" y="157" width="5" height="5" fill="black" />
<rect shape-rendering="optimizeSpeed"  x="157" y="157" width="5" height="5" fill="black" />
<rect shape-rendering="optimizeSpeed"  x="172" y="157" width="5" height="5" fill="black" />
<rect shape-rendering="optimizeSpeed"  x="177" y="157" width="5" height="5" fill="black" />
<rect shape-rendering="optimizeSpeed"  x="17" y="162" width="5" height="5" fill="black" />
<rect shape-rendering="optimizeSpeed"  x="27" y="162" width="5" height="5" fill="black" />
<rect shape-rendering="optimizeSpeed"  x="32" y="162" width="5" height="5" fill="black" />
<rect shape-rendering="optimizeSpeed"  x="37" y="162" width="5" height="5" fill="black" />
<rect shape-rendering="optimizeSpeed"  x="47" y="162" width="5" height="5" fill="black" />
<rect shape-rendering="optimizeSpeed"  x="57" y="162" width="5" height="5" fill="black" />
<rect shape-rendering="optimizeSpeed"  x="67" y="162" width="5" height="5" fill="black" />
<rect shape-rendering="optimizeSpeed"  x="92" y="162" width="5" height="5" fill="black" />
<rect shape-rendering="optimizeSpeed"  x="107" y="162" width="5" height="5" fill="black" />
<rect shape-rendering="optimizeSpeed"  x="112" y="162" width="5" height="5" fill="black" />
<rect shape-rendering="optimizeSpeed"  x="122" y="162" width="5" height="5" fill="black" />
<rect shape-rendering="optimizeSpeed"  x="127" y="162" width="5" height="5" fill="black" />
<rect shape-rendering="optimizeSpeed"  x="132" y="162" width="5" height="5" fill="black" />
<rect shape-rendering="optimizeSpeed"  x="137" y="162" width="5" height="5" fill="black" />
<rect shape-rendering="optimizeSpeed"  x="162" y="162" width="5" height="5" fill="black" />
<rect shape-rendering="optimizeSpeed"  x="167" y="162" width="5" height="5" fill="black" />
<rect shape-rendering="optimizeSpeed"  x="17" y="167" width="5" height="5" fill="black" />
<rect shape-rendering="optimizeSpeed"  x="27" y="167" width="5" height="5" fill="black" />
<rect shape-rendering="optimizeSpeed"  x="32" y="167" width="5" height="5" fill="black" />
<rect shape-rendering="optimizeSpeed"  x="37" y="167" width="5" height="5" fill="black" />
<rect shape-rendering="optimizeSpeed"  x="47" y="167" width="5" height="5" fill="black" />
<rect shape-rendering="optimizeSpeed"  x="62" y="167" width="5" height="5" fill="black" />
<rect shape-rendering="optimizeSpeed"  x="67" y="167" width="5" height="5" fill="black" />
<rect shape-rendering="optimizeSpeed"  x="72" y="167" width="5" height="5" fill="black" />
<rect shape-rendering="optimizeSpeed"  x="77" y="167" width="5" height="5" fill="black" />
<rect shape-rendering="optimizeSpeed"  x="82" y="167" width="5" height="5" fill="black" />
<rect shape-rendering="optimizeSpeed"  x="92" y="167" width="5" height="5" fill="black" />
<rect shape-rendering="optimizeSpeed"  x="97" y="167" width="5" height="5" fill="black" />
<rect shape-rendering="optimizeSpeed"  x="102" y="167" width="5" height="5" fill="black" />
<rect shape-rendering="optimizeSpeed"  x="112" y="167" width="5" height="5" fill="black" />
<rect shape-rendering="optimizeSpeed"  x="117" y="167" width="5" height="5" fill="black" />
<rect shape-rendering="optimizeSpeed"  x="132" y="167" width="5" height="5" fill="black" />
<rect shape-rendering="optimizeSpeed"  x="137" y="167" width="5" height="5" fill="black" />
<rect shape-rendering="optimizeSpeed"  x="142" y="167" width="5" height="5" fill="black" />
<rect shape-rendering="optimizeSpeed"  x="152" y="167" width="5" height="5" fill="black" />
<rect shape-rendering="optimizeSpeed"  x="157" y="167" width="5" height="5" fill="black" />
<rect shape-rendering="optimizeSpeed"  x="167" y="167" width="5" height="5" fill="black" />
<rect shape-rendering="optimizeSpeed"  x="177" y="167" width="5" height="5" fill="black" />
<rect shape-rendering="optimizeSpeed"  x="17" y="172" width="5" height="5" fill="black" />
<rect shape-rendering="optimizeSpeed"  x="47" y="172" width="5" height="5" fill="black" />
<rect shape-rendering="optimizeSpeed"  x="57" y="172" width="5" height="5" fill="black" />
<rect shape-rendering="optimizeSpeed"  x="62" y="172" width="5" height="5" fill="black" />
<rect shape-rendering="optimizeSpeed"  x="72" y="172" width="5" height="5" fill="black" />
<rect shape-rendering="optimizeSpeed"  x="77" y="172" width="5" height="5" fill="black" />
<rect shape-rendering="optimizeSpeed"  x="82" y="172" width="5" height="5" fill="black" />
<rect shape-rendering="optimizeSpeed"  x="92" y="172" width="5" height="5" fill="black" />
<rect shape-rendering="optimizeSpeed"  x="107" y="172" width="5" height="5" fill="black" />
<rect shape-rendering="optimizeSpeed"  x="112" y="172" width="5" height="5" fill="black" />
<rect shape-rendering="optimizeSpeed"  x="117" y="172" width="5" height="5" fill="black" />
<rect shape-rendering="optimizeSpeed"  x="127" y="172" width="5" height="5" fill="black" />
<rect shape-rendering="optimizeSpeed"  x="132" y="172" width="5" height="5" fill="black" />
<rect shape-rendering="optimizeSpeed"  x="137" y="172" width="5" height="5" fill="black" />
<rect shape-rendering="optimizeSpeed"  x="142" y="172" width="5" height="5" fill="black" />
<rect shape-rendering="optimizeSpeed"  x="147" y="172" width="5" height="5" fill="black" />
<rect shape-rendering="optimizeSpeed"  x="157" y="172" width="5" height="5" fill="black" />
<rect shape-rendering="optimizeSpeed"  x="167" y="172" width="5" height="5" fill="black" />
<rect shape-rendering="optimizeSpeed"  x="172" y="172" width="5" height="5" fill="black" />
<rect shape-rendering="optimizeSpeed"  x="177" y="172" width="5" height="5" fill="black" />
<rect shape-rendering="optimizeSpeed"  x="17" y="177" width="5" height="5" fill="black" />
<rect shape-rendering="optimizeSpeed"  x="22" y="177" width="5" height="5" fill="black" />
<rect shape-rendering="optimizeSpeed"  x="27" y="177" width="5" height="5" fill="black" />
<rect shape-rendering="optimizeSpeed"  x="32" y="177" width="5" height="5" fill="black" />
<rect shape-rendering="optimizeSpeed"  x="37" y="177" width="5" height="5" fill="black" />
<rect shape-rendering="optimizeSpeed"  x="42" y="177" width="5" height="5" fill="black" />
<rect shape-rendering="optimizeSpeed"  x="47" y="177" width="5" height="5" fill="black" />
<rect shape-rendering="optimizeSpeed"  x="57" y="177" width="5" height="5" fill="black" />
<rect shape-rendering="optimizeSpeed"  x="62" y="177" width="5" height="5" fill="black" />
<rect shape-rendering="optimizeSpeed"  x="77" y="177" width="5" height="5" fill="black" />
<rect shape-rendering="optimizeSpeed"  x="92" y="177" width="5" height="5" fill="black" />
<rect shape-rendering="optimizeSpeed"  x="97" y="177" width="5" height="5" fill="black" />
<rect shape-rendering="optimizeSpeed"  x="102" y="177" width="5" height="5" fill="black" />
<rect shape-rendering="optimizeSpeed"  x="107" y="177" width="5" height="5" fill="black" />
<rect shape-rendering="optimizeSpeed"  x="112" y="177" width="5" height="5" fill="black" />
<rect shape-rendering="optimizeSpeed"  x="117" y="177" width="5" height="5" fill="black" />
<rect shape-rendering="optimizeSpeed"  x="132" y="177" width="5" height="5" fill="black" />
<rect shape-rendering="optimizeSpeed"  x="137" y="177" width="5" height="5" fill="black" />
<rect shape-rendering="optimizeSpeed"  x="142" y="177" width="5" height="5" fill="black" />
<rect shape-rendering="optimizeSpeed"  x="147" y="177" width="5" height="5" fill="black" />
<rect shape-rendering="optimizeSpeed"  x="152" y="177" width="5" height="5" fill="black" />
<rect shape-rendering="optimizeSpeed"  x="157" y="177" width="5" height="5" fill="black" /></svg>